<svg width="218" height="232" viewBox="0 0 218 232" fill="none" xmlns="http://www.w3.org/2000/svg">
<path d="M94.9513 209.852C92.2465 211.835 85.8949 212.442 84.3339 210.864C83.836 210.378 83.4188 208.099 83.4054 205.806C83.3785 202.609 81.1985 199.169 73.9183 190.861C47.5027 160.674 30.3587 137.501 26.2275 126.4C24.1013 120.721 24.0206 119.021 25.5143 112.372C27.6001 102.997 36.1317 86.4201 43.2503 77.8954C46.1973 74.3749 48.2562 70.9219 47.8256 70.2205C47.395 69.5191 44.4749 68.5614 41.3529 68.0894C33.4807 66.9024 30.5067 64.4205 30.6682 59.1466C30.8701 51.8763 39.0249 43.2573 39.0249 50.2982C39.0249 52.1326 39.7785 54.2368 40.707 54.9921C41.6355 55.7475 48.4446 56.7861 55.8459 57.3121C68.428 58.1889 83.7283 61.1428 86.7965 63.274C87.5366 63.8 89.8108 64.9331 91.8428 65.7963C97.212 68.1028 96.4046 65.4321 90.524 61.4261C85.7738 58.1889 85.6796 58 88.9092 58C93.1481 58 95.5434 55.707 95.5434 51.6605C95.5434 47.4656 97.4812 47.7624 100.832 52.4698C104.586 57.7573 104.331 61.2642 100.011 64.1103L96.3912 66.4842L103.375 72.9721C111.476 80.5256 111.947 83.2233 106.511 91.0466C102.824 96.361 102.635 96.4284 95.3819 96.0103C89.5551 95.6731 87.2944 96.1587 84.7107 98.2898C81.7771 100.691 81.6425 101.217 83.4323 103.024C84.5492 104.144 91.2103 106.046 98.2348 107.246C138.269 114.112 139.318 114.301 159.463 118.212C166.124 119.521 175.517 120.613 180.321 120.654C188.315 120.721 189.108 120.465 189.485 117.767C189.781 115.744 188.732 114.058 186.121 112.385C174.602 104.98 168.896 95.9968 174.373 93.8926C175.544 93.434 181.304 93.0698 187.157 93.0698C195.487 93.0698 197.815 93.488 197.815 94.9987C197.815 98.1819 190.925 102.768 187.44 101.891C182.326 100.596 183.82 104.063 191.087 110.348C195.487 114.139 197.815 117.214 197.815 119.21C197.815 122.69 192.675 128.14 189.391 128.14C185.946 128.14 185.273 130.662 187.736 134.425C189.916 137.757 189.849 138.215 185.798 147.023C183.484 152.041 181.519 158.205 181.425 160.701C181.263 165.287 182.69 171.41 184.197 172.651C184.654 173.015 185.758 175.349 186.632 177.817C188.664 183.469 187.534 186.585 179.352 198.104C170.457 210.581 169.031 211.767 162.827 211.767C156.045 211.767 155.964 210.324 162.128 199.088L166.811 190.537L159.382 184.966C151.631 179.153 149.922 178.788 137.596 180.272C127.759 181.459 128.755 183.442 139.184 183.442C147.11 183.442 148.065 183.752 150.501 187.192L153.165 190.928L143.14 201.354C133.101 211.781 131.096 212.779 124.139 210.918C119.9 209.785 120.29 208.301 126.925 200.451C127.14 200.194 127.355 199.938 127.557 199.695C131.809 194.664 133.666 192.466 133.29 190.766C132.994 189.377 131.204 188.311 128.055 186.274C121.73 182.214 121.111 182.093 105.851 182.093C97.2255 182.093 90.1607 182.376 90.1607 182.714C90.1607 183.064 91.7755 186.234 93.7402 189.768C98.2348 197.834 98.7865 207.033 94.9513 209.852ZM46.2646 180.812C47.0048 184.926 46.5741 186.14 43.2772 189.296C39.1191 193.302 37.9483 192.843 35.0686 186.099C34.2881 184.265 32.8886 181.581 31.9601 180.124C27.3578 172.894 24.2224 167.175 24.2224 166.028C24.2224 163.439 34.0728 148.264 35.082 149.316C35.6472 149.91 37.9214 153.727 40.1418 157.814C42.9274 162.953 43.9501 166.379 43.4522 168.955C43.0619 170.992 43.3445 173.42 44.0712 174.351C44.7978 175.268 45.7936 178.181 46.2646 180.812ZM83.5265 51.6875C83.1228 52.7531 82.9344 53.5084 82.4634 54.0345C81.333 55.3294 78.5475 55.1675 66.9208 54.4931C65.8577 54.4391 64.7273 54.3717 63.5297 54.3042C55.9266 53.8726 54.9308 53.4814 53.7735 50.4331C51.6743 44.8893 52.1049 41.76 54.8366 42.7987C56.1285 43.2977 58.147 44.8894 59.3312 46.3461C62.036 49.6912 64.5928 48.194 64.5928 43.2438C64.5928 41.1531 65.5078 38.6847 66.6382 37.7405C69.5853 35.2991 74.4566 39.8312 73.407 44.0261C72.2632 48.6121 75.1025 49.2326 78.8166 45.1996C84.4281 39.1298 86.958 42.6233 83.5265 51.6875ZM70.8233 75.7373C73.5281 78.7317 81.2119 78.3001 81.8309 75.1303C82.4365 72.0819 76.7443 68.8447 72.3304 69.7214C68.105 70.5577 67.6744 72.2438 70.8233 75.7373Z" fill="white"/>
<path d="M146.881 179.53C145.926 179.584 144.849 179.679 143.557 179.8C132.603 180.785 130.208 183.442 140.26 183.442C144.082 183.442 146.087 183.577 147.554 184.292C145.993 183.55 143.746 183.442 139.184 183.442C128.755 183.442 127.759 181.459 137.596 180.272C141.633 179.786 144.526 179.49 146.881 179.53Z" fill="#A4A4A4"/>
<path d="M76.1116 60.0637C79.126 60.3739 82.4632 59.4432 83.5667 57.7302C84.4279 56.3949 87.5768 55.5721 92.5155 55.4102C93.915 55.3563 94.7224 55.0325 95.153 54.2232C94.3052 56.6646 92.1387 58 88.9091 58C85.6794 58 85.7736 58.1888 90.5239 61.426C96.4045 65.4321 97.2119 68.1028 91.8426 65.7963C89.8107 64.933 87.5365 63.8 86.7963 63.2739C85.3699 62.2893 81.306 61.1158 76.1116 60.0637ZM73.4472 77.3019C73.8644 77.1535 74.3219 76.7623 74.9409 76.1553C76.0174 75.0763 77.6053 74.1726 78.48 74.1456C81.4674 74.0646 74.8467 70.1395 71.7382 70.1395C71.2268 70.1395 70.7962 70.18 70.406 70.2609C70.9308 70.0451 71.5632 69.8698 72.3303 69.7214C76.7441 68.8446 82.4363 72.0819 81.8308 75.1302C81.3598 77.5446 76.7845 78.3674 73.4472 77.3019ZM145.132 179.652C144.257 179.867 143.423 180.232 142.642 180.744C141 181.81 141.175 182.053 143.557 182.066C144.849 182.08 146.733 183.186 148.428 184.818C148.159 184.615 147.863 184.44 147.554 184.292C146.087 183.577 144.068 183.442 140.26 183.442C130.208 183.442 132.603 180.785 143.557 179.8C144.122 179.746 144.647 179.692 145.132 179.652ZM83.5263 51.6874C85.9486 45.2939 85.4103 41.6656 82.9073 42.2321C83.2707 42.1107 83.5667 42.0837 83.7955 42.1646C85.6525 42.7851 85.666 43.0009 84.1857 50.8377C82.9208 57.4874 81.6693 58.2023 75.3581 55.8823C74.1066 55.4237 72.1553 55.0056 70.0023 54.6684C79.0587 55.1809 81.4405 55.2079 82.4632 54.0344C82.9342 53.5084 83.1226 52.753 83.5263 51.6874ZM150.501 193.707L144.257 200.262C139.305 205.482 134.218 210.27 132.98 210.918C132.374 211.228 131.513 211.403 130.504 211.471C133.693 210.729 136.829 207.896 143.14 201.354L150.501 193.707ZM43.0618 55.7474C45.955 56.3409 51.0551 56.9749 56.4916 57.3391C64.2428 57.8651 72.0477 58.8498 73.824 59.5377C73.9989 59.6051 74.1873 59.6591 74.3757 59.7265C68.697 58.6474 61.9551 57.7302 55.8457 57.3121C50.7052 56.9479 45.8608 56.3409 43.0618 55.7474ZM150.111 179.867C153.098 180.488 155.466 182.026 159.382 184.966C155.83 182.295 152.775 180.609 150.111 179.867ZM58.6178 53.8995C55.3747 53.6163 54.6884 52.8474 53.8003 50.487C53.7868 50.487 53.7868 50.4735 53.7734 50.46C54.6077 52.6451 55.3747 53.4544 58.6178 53.8995ZM150.918 187.772L153.273 190.78L153.152 190.914L150.918 187.772ZM121.623 209.636C121.3 209.38 121.111 209.097 121.111 208.813C121.111 208.557 121.38 208.004 121.838 207.235C121.286 208.328 121.232 209.07 121.623 209.636ZM68.7911 72.4325C68.9661 73.2553 69.5582 74.2805 70.5809 75.4539C69.5178 74.2265 68.9123 73.2419 68.7911 72.4325ZM97.2523 48.8144C98.1269 49.1381 99.3381 50.3656 100.832 52.4698C99.3515 50.3791 98.1404 49.1516 97.2523 48.8144Z" fill="#A4A4A4"/>
</svg>
